<mxfile host="app.diagrams.net" modified="2023-05-01T04:11:53.717Z" agent="Mozilla/5.0 (X11; Linux x86_64) AppleWebKit/537.36 (KHTML, like Gecko) Chrome/111.0.0.0 Safari/537.36" etag="b7aPpX0uEoxiM0EvZ-qk" version="21.2.3" type="github">
  <diagram name="Page-1" id="55a83fd1-7818-8e21-69c5-c3457e3827bb">
    <mxGraphModel dx="1674" dy="802" grid="1" gridSize="10" guides="1" tooltips="1" connect="1" arrows="1" fold="1" page="1" pageScale="1" pageWidth="1100" pageHeight="850" background="none" math="0" shadow="0">
      <root>
        <mxCell id="0" />
        <mxCell id="1" parent="0" />
        <mxCell id="69ecfefc5c41e42c-2" value="Internet" style="image;html=1;labelBackgroundColor=#ffffff;image=img/lib/clip_art/networking/Cloud_128x128.png;rounded=1;shadow=0;comic=0;strokeWidth=2;fontSize=22;labelPosition=center;verticalLabelPosition=top;align=center;verticalAlign=bottom;" parent="1" vertex="1">
          <mxGeometry x="470" y="30" width="80" height="80" as="geometry" />
        </mxCell>
        <mxCell id="YRPtJDm6MSVrwrSYZJ2i-1" value="" style="image;html=1;image=img/lib/clip_art/networking/Modem_128x128.png;fontSize=16;" vertex="1" parent="1">
          <mxGeometry x="470" y="140" width="80" height="80" as="geometry" />
        </mxCell>
        <mxCell id="YRPtJDm6MSVrwrSYZJ2i-2" value="" style="image;html=1;image=img/lib/clip_art/computers/Server_128x128.png;fontSize=16;" vertex="1" parent="1">
          <mxGeometry x="470" y="260" width="80" height="80" as="geometry" />
        </mxCell>
        <mxCell id="YRPtJDm6MSVrwrSYZJ2i-3" value="" style="image;html=1;image=img/lib/clip_art/computers/Monitor_Tower_128x128.png;fontSize=16;" vertex="1" parent="1">
          <mxGeometry x="470" y="360" width="80" height="80" as="geometry" />
        </mxCell>
        <mxCell id="YRPtJDm6MSVrwrSYZJ2i-4" value="" style="image;html=1;image=img/lib/clip_art/computers/MacBook_128x128.png;fontSize=16;" vertex="1" parent="1">
          <mxGeometry x="240" y="360" width="80" height="80" as="geometry" />
        </mxCell>
        <mxCell id="YRPtJDm6MSVrwrSYZJ2i-5" value="" style="image;html=1;image=img/lib/clip_art/computers/Laptop_128x128.png;fontSize=16;" vertex="1" parent="1">
          <mxGeometry x="700" y="360" width="80" height="80" as="geometry" />
        </mxCell>
        <mxCell id="YRPtJDm6MSVrwrSYZJ2i-6" value="" style="image;html=1;image=img/lib/clip_art/computers/Server_128x128.png;fontSize=16;" vertex="1" parent="1">
          <mxGeometry x="870" y="360" width="80" height="80" as="geometry" />
        </mxCell>
        <mxCell id="YRPtJDm6MSVrwrSYZJ2i-7" value="" style="image;html=1;image=img/lib/clip_art/computers/Laptop_128x128.png;fontSize=16;" vertex="1" parent="1">
          <mxGeometry x="40" y="360" width="80" height="80" as="geometry" />
        </mxCell>
        <mxCell id="YRPtJDm6MSVrwrSYZJ2i-8" value="" style="image;html=1;image=img/lib/clip_art/telecommunication/iPhone_128x128.png;fontSize=16;" vertex="1" parent="1">
          <mxGeometry x="1010" y="350" width="80" height="80" as="geometry" />
        </mxCell>
        <mxCell id="YRPtJDm6MSVrwrSYZJ2i-9" style="edgeStyle=none;curved=1;rounded=0;orthogonalLoop=1;jettySize=auto;html=1;fontSize=12;startSize=8;endSize=8;" edge="1" parent="1" source="69ecfefc5c41e42c-2" target="69ecfefc5c41e42c-2">
          <mxGeometry relative="1" as="geometry" />
        </mxCell>
        <mxCell id="YRPtJDm6MSVrwrSYZJ2i-10" value="" style="image;html=1;image=img/lib/clip_art/computers/Virtual_Machine_128x128.png;fontSize=16;" vertex="1" parent="1">
          <mxGeometry x="280" y="535" width="80" height="80" as="geometry" />
        </mxCell>
        <mxCell id="YRPtJDm6MSVrwrSYZJ2i-11" value="" style="image;html=1;image=img/lib/clip_art/computers/Virtual_Machine_128x128.png;fontSize=16;" vertex="1" parent="1">
          <mxGeometry x="720" y="520" width="80" height="80" as="geometry" />
        </mxCell>
        <mxCell id="YRPtJDm6MSVrwrSYZJ2i-12" value="" style="image;html=1;image=img/lib/clip_art/computers/Virtual_Machine_128x128.png;fontSize=16;" vertex="1" parent="1">
          <mxGeometry x="480" y="520" width="80" height="80" as="geometry" />
        </mxCell>
        <mxCell id="YRPtJDm6MSVrwrSYZJ2i-13" value="Raspberry Pi WAP&lt;br&gt;192.168.0.37&lt;br&gt;192.168.55.1" style="text;html=1;strokeColor=none;fillColor=none;align=center;verticalAlign=middle;whiteSpace=wrap;rounded=0;fontSize=16;" vertex="1" parent="1">
          <mxGeometry x="580" y="280" width="60" height="30" as="geometry" />
        </mxCell>
        <mxCell id="YRPtJDm6MSVrwrSYZJ2i-14" value="Security Onion&lt;br&gt;192.168.55.10" style="text;html=1;strokeColor=none;fillColor=none;align=center;verticalAlign=middle;whiteSpace=wrap;rounded=0;fontSize=16;" vertex="1" parent="1">
          <mxGeometry x="290" y="630" width="60" height="30" as="geometry" />
        </mxCell>
        <mxCell id="YRPtJDm6MSVrwrSYZJ2i-15" value="Kubernetes" style="text;html=1;strokeColor=none;fillColor=none;align=center;verticalAlign=middle;whiteSpace=wrap;rounded=0;fontSize=16;" vertex="1" parent="1">
          <mxGeometry x="520" y="600" width="60" height="30" as="geometry" />
        </mxCell>
        <mxCell id="YRPtJDm6MSVrwrSYZJ2i-16" value="Cisco Laptop" style="text;html=1;strokeColor=none;fillColor=none;align=center;verticalAlign=middle;whiteSpace=wrap;rounded=0;fontSize=16;" vertex="1" parent="1">
          <mxGeometry x="50" y="440" width="60" height="30" as="geometry" />
        </mxCell>
        <mxCell id="YRPtJDm6MSVrwrSYZJ2i-17" value="Macbook&lt;br&gt;192.168.55.12" style="text;html=1;strokeColor=none;fillColor=none;align=center;verticalAlign=middle;whiteSpace=wrap;rounded=0;fontSize=16;" vertex="1" parent="1">
          <mxGeometry x="250" y="440" width="60" height="30" as="geometry" />
        </mxCell>
        <mxCell id="YRPtJDm6MSVrwrSYZJ2i-18" value="Linux PC&lt;br&gt;192.168.55.22" style="text;html=1;strokeColor=none;fillColor=none;align=center;verticalAlign=middle;whiteSpace=wrap;rounded=0;fontSize=16;" vertex="1" parent="1">
          <mxGeometry x="480" y="440" width="60" height="30" as="geometry" />
        </mxCell>
        <mxCell id="YRPtJDm6MSVrwrSYZJ2i-19" value="Windows Laptop" style="text;html=1;strokeColor=none;fillColor=none;align=center;verticalAlign=middle;whiteSpace=wrap;rounded=0;fontSize=16;" vertex="1" parent="1">
          <mxGeometry x="710" y="440" width="60" height="30" as="geometry" />
        </mxCell>
        <mxCell id="YRPtJDm6MSVrwrSYZJ2i-20" value="Raspberry Pi Server" style="text;html=1;strokeColor=none;fillColor=none;align=center;verticalAlign=middle;whiteSpace=wrap;rounded=0;fontSize=16;" vertex="1" parent="1">
          <mxGeometry x="880" y="440" width="60" height="30" as="geometry" />
        </mxCell>
        <mxCell id="YRPtJDm6MSVrwrSYZJ2i-21" value="iPhone" style="text;html=1;strokeColor=none;fillColor=none;align=center;verticalAlign=middle;whiteSpace=wrap;rounded=0;fontSize=16;" vertex="1" parent="1">
          <mxGeometry x="1020" y="440" width="60" height="30" as="geometry" />
        </mxCell>
        <mxCell id="YRPtJDm6MSVrwrSYZJ2i-22" value="Home Modem&lt;br&gt;192.168.0.1" style="text;html=1;strokeColor=none;fillColor=none;align=center;verticalAlign=middle;whiteSpace=wrap;rounded=0;fontSize=16;" vertex="1" parent="1">
          <mxGeometry x="570" y="140" width="60" height="30" as="geometry" />
        </mxCell>
      </root>
    </mxGraphModel>
  </diagram>
</mxfile>
